<svg width="99" height="29" viewBox="0 0 99 29" fill="none" xmlns="http://www.w3.org/2000/svg">
<path d="M1 4C0.447715 4 0 4.44772 0 5V14C0 14.5523 0.447715 15 1 15C1.55228 15 2 14.5523 2 14V6H10C10.5523 6 11 5.55228 11 5C11 4.44772 10.5523 4 10 4H1ZM96.7198 0.874448C89.4041 9.99851 75.8628 21.1102 59.0723 24.8109C42.361 28.4942 22.2854 24.8712 1.70711 4.29289L0.292893 5.70711C21.3146 26.7288 42.0724 30.6058 59.5027 26.7641C76.8539 22.9398 90.7625 11.5015 98.2802 2.12555L96.7198 0.874448Z" fill="white"/>
</svg>
