<svg width="141" height="137" viewBox="0 0 141 137" fill="none" xmlns="http://www.w3.org/2000/svg">
<path fill-rule="evenodd" clip-rule="evenodd" d="M77.2338 0.535612C77.9968 0.549413 78.7579 0.630053 79.5068 0.776431C80.3684 0.944889 81.1788 1.21843 81.8216 1.43553L129.167 17.3478C130.44 17.7755 131.705 18.2006 132.766 18.646C133.95 19.1431 135.285 19.8247 136.538 20.9451C138.306 22.5274 139.611 24.5611 140.312 26.8282C140.809 28.4334 140.872 29.9311 140.831 31.2145C140.794 32.3645 140.653 33.692 140.511 35.0275L139.701 42.6767C139.527 44.318 139.358 45.9171 139.104 47.2591C138.825 48.7332 138.352 50.4576 137.266 52.1279C135.759 54.4438 133.558 56.2233 130.978 57.2113C129.117 57.9239 127.331 58.0246 125.831 57.9885C125.54 57.9816 125.237 57.9683 124.926 57.9501L120.779 97.0883C121.088 97.136 121.386 97.1861 121.672 97.2408C123.147 97.5193 124.871 97.9922 126.542 99.0789C128.857 100.585 130.637 102.787 131.625 105.367C132.337 107.228 132.438 109.013 132.402 110.513C132.37 111.878 132.2 113.478 132.026 115.119L131.43 120.74C131.256 122.381 131.087 123.98 130.833 125.322C130.554 126.796 130.081 128.521 128.995 130.191C127.488 132.507 125.287 134.286 122.707 135.274C120.846 135.987 119.06 136.088 117.56 136.052C116.195 136.019 114.596 135.849 112.954 135.675L16.2613 125.43C14.6194 125.256 13.0204 125.088 11.6781 124.833C10.2039 124.554 8.47962 124.081 6.80922 122.995C4.49329 121.488 2.71384 119.287 1.72582 116.707C1.0132 114.846 0.912538 113.06 0.948579 111.56C0.981355 110.195 1.15097 108.596 1.32512 106.954L1.92049 101.335C2.09426 99.6929 2.26348 98.0938 2.51756 96.7518C2.79664 95.2776 3.26922 93.5528 4.35595 91.8826C5.8627 89.5669 8.06395 87.7872 10.6441 86.7995C12.5052 86.0869 14.2902 85.9859 15.7902 86.0225C16.0819 86.029 16.3842 86.0426 16.6954 86.0605L20.8421 46.9223C20.5341 46.8749 20.2356 46.8245 19.949 46.7702C18.4747 46.4912 16.7504 46.0186 15.08 44.9318C12.7641 43.4252 10.9847 41.2239 9.99667 38.6436C9.28407 36.7827 9.18336 34.9976 9.21939 33.4977C9.25221 32.1318 9.42182 30.5328 9.59597 28.8911L10.4063 21.2427C10.5477 19.9072 10.6881 18.5796 10.8929 17.4474C11.1213 16.1838 11.4969 14.7327 12.319 13.2672C13.48 11.1974 15.1822 9.48231 17.2431 8.30568C18.7024 7.47263 20.1507 7.086 21.4125 6.84801C22.5431 6.63475 23.8696 6.48426 25.204 6.33285L74.8323 0.695009C75.5069 0.617485 76.356 0.519768 77.2338 0.535612ZM33.847 48.3541L29.7115 87.3856L45.9747 89.1087L50.1101 50.0772L33.847 48.3541ZM63.1206 51.4557L58.9852 90.4872L78.501 92.5549L82.6364 53.5234L63.1206 51.4557ZM95.6469 54.9018L91.5115 93.9334L107.775 95.6565L111.91 56.6249L95.6469 54.9018Z" fill="#E7E9F1"/>
</svg>
