<svg width="36" height="36" viewBox="0 0 36 36" fill="none" xmlns="http://www.w3.org/2000/svg">
<path d="M10.5 14.25C10.5 10.1079 13.8579 6.75 18 6.75C22.1421 6.75 25.5 10.1079 25.5 14.25C25.5 18.3921 22.1421 21.75 18 21.75C13.8579 21.75 10.5 18.3921 10.5 14.25Z" fill="#101B42"/>
<path fill-rule="evenodd" clip-rule="evenodd" d="M25.8619 1.5H10.1381C8.93061 1.49998 7.93406 1.49997 7.12227 1.56629C6.27912 1.63518 5.50406 1.78302 4.77606 2.15397C3.64709 2.72921 2.72921 3.64709 2.15397 4.77606C1.78302 5.50406 1.63518 6.27912 1.56629 7.12227C1.49997 7.93406 1.49998 8.93058 1.5 10.138V25.8619C1.49998 27.0695 1.49997 28.0659 1.56629 28.8777C1.63518 29.7208 1.78302 30.4959 2.15397 31.224C2.72921 32.3529 3.64709 33.2707 4.77606 33.846C5.50406 34.2169 6.27912 34.3648 7.12227 34.4337C7.93406 34.5 8.93058 34.5 10.138 34.5H25.8619C27.0695 34.5 28.0659 34.5 28.8777 34.4337C29.7208 34.3648 30.4959 34.2169 31.224 33.846C32.3529 33.2707 33.2707 32.3529 33.846 31.224C34.2169 30.4959 34.3648 29.7208 34.4337 28.8777C34.5 28.0659 34.5 27.0695 34.5 25.8619V10.138C34.5 8.93058 34.5 7.93406 34.4337 7.12227C34.3648 6.27912 34.2169 5.50406 33.846 4.77606C33.2707 3.64709 32.3529 2.72921 31.224 2.15397C30.4959 1.78302 29.7208 1.63518 28.8777 1.56629C28.0659 1.49997 27.0695 1.49998 25.8619 1.5ZM6.13803 4.82699C6.37263 4.70745 6.70893 4.61006 7.36656 4.55633C8.0417 4.50117 8.91513 4.5 10.2 4.5H25.8C27.0849 4.5 27.9584 4.50117 28.6335 4.55633C29.2911 4.61006 29.6274 4.70745 29.862 4.82699C30.4265 5.1146 30.8854 5.57355 31.173 6.13803C31.2925 6.37263 31.3899 6.70893 31.4436 7.36656C31.4988 8.0417 31.5 8.91513 31.5 10.2V25.8C31.5 27.0849 31.4988 27.9584 31.4436 28.6335C31.4048 29.1104 31.3428 29.4183 31.266 29.6411C30.5544 26.8568 28.3052 24.7095 25.4632 24.1441C24.736 23.9995 23.9001 23.9997 22.6737 24H13.3264C12.1 23.9997 11.2641 23.9995 10.5369 24.1441C7.69491 24.7095 5.44554 26.8569 4.734 29.6412C4.65728 29.4184 4.59531 29.1105 4.55633 28.6335C4.50117 27.9584 4.5 27.0849 4.5 25.8V10.2C4.5 8.91513 4.50117 8.0417 4.55633 7.36656C4.61006 6.70893 4.70745 6.37263 4.82699 6.13803C5.1146 5.57355 5.57355 5.1146 6.13803 4.82699Z" fill="#101B42"/>
</svg>
