<svg width="36" height="36" viewBox="0 0 36 36" fill="none" xmlns="http://www.w3.org/2000/svg">
<path d="M18.6044 1.77758C18.2057 1.69557 17.7944 1.69557 17.3957 1.77758C16.9348 1.87236 16.5229 2.10311 16.1953 2.28654L16.106 2.33642C13.4617 3.80552 8.9882 6.29201 6.46612 7.69392C5.85374 8.0343 5.54756 8.20451 5.44525 8.42943C5.35604 8.62553 5.35547 8.85051 5.44367 9.04706C5.54486 9.27251 5.85044 9.44441 6.4616 9.78818L17.4118 15.9477C17.6263 16.0683 17.7337 16.1288 17.8474 16.1525C17.948 16.1733 18.052 16.1733 18.1526 16.1525C18.2665 16.1288 18.3737 16.0683 18.5884 15.9477L29.5385 9.78816C30.1496 9.44438 30.4553 9.27249 30.5564 9.04704C30.6446 8.8505 30.644 8.62551 30.5549 8.42942C30.4526 8.20448 30.1463 8.03429 29.534 7.69389C27.0119 6.29199 22.5385 3.80552 19.8941 2.33642L19.8049 2.28654C19.4773 2.10311 19.0654 1.87236 18.6044 1.77758Z" fill="#101B42"/>
<path d="M32.9938 13.3352C32.9932 12.6627 32.993 12.3265 32.8512 12.1301C32.7275 11.9588 32.5373 11.8477 32.3273 11.824C32.0867 11.7969 31.793 11.962 31.2057 12.2924L20.1117 18.5328C19.8889 18.6581 19.7776 18.7208 19.6966 18.8093C19.6249 18.8877 19.5706 18.9804 19.5375 19.0813C19.5 19.1953 19.5 19.3231 19.5 19.5786V31.8415C19.5 32.5124 19.5 32.8478 19.641 33.044C19.7641 33.2151 19.9535 33.3265 20.1629 33.351C20.4029 33.379 20.6952 33.2168 21.2797 32.8922C23.7792 31.5042 28.3223 28.9815 30.9941 27.4971L31.0887 27.4449C31.4353 27.254 31.8714 27.0138 32.206 26.6505C32.4955 26.3364 32.7146 25.9643 32.8485 25.5587C33.0036 25.0896 33.0017 24.5919 33.0003 24.1962L33 24.0879C33 21.1434 32.9962 16.1345 32.9938 13.3352Z" fill="#101B42"/>
<path d="M14.7203 32.8921C15.3049 33.2167 15.5972 33.379 15.8372 33.351C16.0466 33.3265 16.2359 33.2151 16.3591 33.0439C16.5001 32.8477 16.5001 32.5123 16.5001 31.8415V19.5787C16.5001 19.3231 16.5001 19.1955 16.4626 19.0813C16.4294 18.9804 16.3751 18.8877 16.3034 18.8094C16.2224 18.7207 16.1111 18.658 15.8884 18.5328L4.79443 12.2924C4.20712 11.9621 3.91348 11.7969 3.6728 11.824C3.46285 11.8477 3.27259 11.9589 3.14888 12.1302C3.00706 12.3265 3.00679 12.6627 3.00622 13.3353C3.00388 16.1344 3.00007 21.1434 3.00007 24.0879L2.9998 24.1962C2.99836 24.5919 2.99654 25.0896 3.15152 25.5586C3.28552 25.9642 3.50455 26.3364 3.79397 26.6505C4.12871 27.0138 4.56461 27.2538 4.91131 27.4449L5.00606 27.4971C7.67785 28.9815 12.2208 31.5042 14.7203 32.8921Z" fill="#101B42"/>
</svg>
