<svg width="36" height="36" viewBox="0 0 36 36" fill="none" xmlns="http://www.w3.org/2000/svg">
<path d="M12.0822 5.86611C12.8268 5.50294 13.136 4.60494 12.7729 3.86035C12.4097 3.11577 11.5117 2.80657 10.7671 3.16972C7.63533 4.6972 5.06748 7.17696 3.43162 10.2535C1.79577 13.3301 1.17589 16.8456 1.66084 20.2962C1.77613 21.1165 2.53464 21.688 3.355 21.5728C4.17537 21.4575 4.74693 20.6991 4.63164 19.8786C4.23487 17.0554 4.74204 14.1792 6.08047 11.662C7.41889 9.14475 9.51985 7.11586 12.0822 5.86611Z" fill="#101B42"/>
<path d="M23.2273 3.86035C23.5905 3.11577 24.4885 2.80657 25.2331 3.16972C28.365 4.6972 30.9328 7.17696 32.5686 10.2535C34.2045 13.3301 34.8243 16.8456 34.3393 20.2962C34.2241 21.1165 33.4656 21.688 32.6452 21.5728C31.8249 21.4575 31.2534 20.6991 31.3686 19.8786C31.7653 17.0554 31.2582 14.1792 29.9198 11.662C28.5813 9.14475 26.4804 7.11586 23.9179 5.86611C23.1733 5.50294 22.8642 4.60494 23.2273 3.86035Z" fill="#101B42"/>
<path d="M7.96968 29.2539C8.45662 28.5837 9.39468 28.4352 10.0649 28.9221C12.3713 30.5978 15.1491 31.5003 18 31.5003C20.8509 31.5003 23.6286 30.5978 25.9352 28.9221C26.6054 28.4352 27.5433 28.5837 28.0303 29.2539C28.5173 29.9241 28.3686 30.8622 27.6984 31.3491C24.8794 33.3972 21.4845 34.5003 18 34.5003C14.5155 34.5003 11.1205 33.3972 8.30154 31.3491C7.63132 30.8622 7.48275 29.9241 7.96968 29.2539Z" fill="#101B42"/>
<path d="M18 8.25C12.6152 8.25 8.25 12.6152 8.25 18C8.25 23.3848 12.6152 27.75 18 27.75C23.3848 27.75 27.75 23.3848 27.75 18C27.75 12.6152 23.3848 8.25 18 8.25Z" fill="#101B42"/>
</svg>
