<svg width="36" height="36" viewBox="0 0 36 36" fill="none" xmlns="http://www.w3.org/2000/svg">
<path fill-rule="evenodd" clip-rule="evenodd" d="M1.65845 17.3293C2.02893 16.5883 2.92994 16.2879 3.67091 16.6584L18.0001 23.823L32.3293 16.6584C33.0702 16.2879 33.9712 16.5883 34.3417 17.3293C34.7122 18.0702 34.4119 18.9712 33.6709 19.3417L19.2076 26.5734C19.1965 26.5789 19.1836 26.5855 19.1692 26.5929C19.0293 26.6643 18.7396 26.812 18.415 26.8729C18.1408 26.9244 17.8594 26.9244 17.5852 26.8729C17.2605 26.812 16.971 26.6643 16.831 26.5929C16.8165 26.5855 16.8037 26.5789 16.7926 26.5734L2.32926 19.3417C1.58829 18.9712 1.28796 18.0702 1.65845 17.3293Z" fill="#101B42"/>
<path fill-rule="evenodd" clip-rule="evenodd" d="M1.65845 24.8294C2.02893 24.0884 2.92994 23.7879 3.67091 24.1584L18.0001 31.323L32.3293 24.1584C33.0702 23.7879 33.9712 24.0884 34.3417 24.8294C34.7122 25.5702 34.4119 26.4713 33.6709 26.8418L19.2076 34.0734C19.1965 34.0789 19.1836 34.0856 19.1692 34.0929C19.0293 34.1643 18.7396 34.3121 18.415 34.373C18.1408 34.4244 17.8594 34.4244 17.5852 34.373C17.2605 34.3121 16.971 34.1643 16.831 34.0929C16.8165 34.0856 16.8037 34.0789 16.7926 34.0734L2.32926 26.8418C1.58829 26.4713 1.28796 25.5702 1.65845 24.8294Z" fill="#101B42"/>
<path fill-rule="evenodd" clip-rule="evenodd" d="M17.5851 1.6272C17.8593 1.57576 18.1407 1.57576 18.4149 1.6272C18.7395 1.68811 19.0292 1.83591 19.1691 1.90732C19.1835 1.91469 19.1964 1.92123 19.2075 1.92678L33.6708 9.15846C34.179 9.41254 34.5 9.93193 34.5 10.5001C34.5 11.0683 34.179 11.5876 33.6708 11.8417L19.2075 19.0734C19.1964 19.079 19.1835 19.0855 19.1691 19.0929C19.0292 19.1643 18.7395 19.312 18.4149 19.373C18.1407 19.4244 17.8593 19.4244 17.5851 19.373C17.2604 19.312 16.9709 19.1643 16.8309 19.0929C16.8164 19.0855 16.8036 19.079 16.7925 19.0734L2.32918 11.8417C1.82101 11.5876 1.5 11.0683 1.5 10.5001C1.5 9.93193 1.82101 9.41254 2.32918 9.15846L16.7925 1.92678C16.8036 1.92123 16.8165 1.91467 16.8309 1.90732C16.9709 1.83591 17.2604 1.68811 17.5851 1.6272Z" fill="#101B42"/>
</svg>
