<svg width="36" height="36" viewBox="0 0 36 36" fill="none" xmlns="http://www.w3.org/2000/svg">
<path fill-rule="evenodd" clip-rule="evenodd" d="M26.3562 6C26.3562 5.17158 27.0278 4.5 27.8562 4.5C30.5792 4.5 32.7852 6.70606 32.7852 9.429V15.6642L34.0603 16.9394C34.6461 17.5251 34.6461 18.4749 34.0603 19.0606L32.7852 20.3358V26.571C32.7852 29.2944 30.5772 31.5 27.8562 31.5C27.0278 31.5 26.3562 30.8284 26.3562 30C26.3562 29.1716 27.0278 28.5 27.8562 28.5C28.9212 28.5 29.7852 27.6366 29.7852 26.571V19.7145C29.7852 19.3167 29.9433 18.9351 30.2246 18.6538L30.8784 18L30.2246 17.3462C29.9433 17.0649 29.7852 16.6833 29.7852 16.2855V9.429C29.7852 8.36293 28.9223 7.5 27.8562 7.5C27.0278 7.5 26.3562 6.82842 26.3562 6Z" fill="#101B42"/>
<path fill-rule="evenodd" clip-rule="evenodd" d="M3.2145 9.429C3.2145 6.70606 5.42058 4.5 8.1435 4.5C8.97192 4.5 9.6435 5.17158 9.6435 6C9.6435 6.82842 8.97192 7.5 8.1435 7.5C7.07742 7.5 6.2145 8.36292 6.2145 9.429V16.2855C6.2145 16.6833 6.05646 17.0649 5.77516 17.3462L5.12131 18L5.77516 18.6538C6.05646 18.9351 6.2145 19.3167 6.2145 19.7145V26.571C6.2145 27.6371 7.07742 28.5 8.1435 28.5C8.97192 28.5 9.6435 29.1716 9.6435 30C9.6435 30.8284 8.97192 31.5 8.1435 31.5C5.42058 31.5 3.2145 29.294 3.2145 26.571V20.3358L1.93933 19.0606C1.65804 18.7794 1.5 18.3978 1.5 18C1.5 17.6022 1.65804 17.2206 1.93933 16.9394L3.2145 15.6642V9.429Z" fill="#101B42"/>
<path fill-rule="evenodd" clip-rule="evenodd" d="M25.8106 12.4393C26.3964 13.0251 26.3964 13.9749 25.8106 14.5607L17.6592 22.7121C17.6511 22.7202 17.643 22.7284 17.6346 22.7367C17.5083 22.863 17.3575 23.0141 17.2137 23.1362C17.0472 23.2775 16.7943 23.4658 16.4452 23.5793C15.9934 23.7261 15.5065 23.7261 15.0547 23.5793C14.7058 23.4658 14.4529 23.2775 14.2863 23.1362C14.1425 23.0141 13.9917 22.8632 13.8654 22.7367C13.8571 22.7284 13.8489 22.7202 13.8408 22.7121L10.1893 19.0607C9.60356 18.4749 9.60356 17.5251 10.1893 16.9394C10.7751 16.3536 11.7249 16.3536 12.3107 16.9394L15.75 20.3787L23.6893 12.4393C24.2751 11.8536 25.2249 11.8536 25.8106 12.4393Z" fill="#101B42"/>
</svg>
