<svg width="36" height="36" viewBox="0 0 36 36" fill="none" xmlns="http://www.w3.org/2000/svg">
<path fill-rule="evenodd" clip-rule="evenodd" d="M17.5711 1.63301C17.8557 1.59189 18.1447 1.59189 18.4293 1.63301C18.7572 1.68041 19.0623 1.79568 19.3047 1.88723L19.3695 1.91169L27.6082 5.00097C28.5349 5.34695 29.3487 5.65079 29.9754 6.20312C30.5236 6.6863 30.946 7.29575 31.206 7.97876C31.503 8.75952 31.5018 9.6282 31.5004 10.6174L31.5001 18.0002C31.5001 22.2401 29.1942 25.775 26.7016 28.3718C24.1923 30.986 21.3211 32.8325 19.803 33.7181L19.7415 33.7542C19.4644 33.9168 19.1049 34.128 18.6292 34.23C18.24 34.3134 17.7603 34.3134 17.3712 34.23C16.8954 34.128 16.5358 33.9168 16.2588 33.7542L16.1973 33.7181C14.6791 32.8325 11.8081 30.986 9.29874 28.3718C6.80608 25.775 4.50015 22.2401 4.50015 18.0002L4.49995 10.6174C4.49851 9.6282 4.49725 8.75952 4.79436 7.97876C5.05426 7.29575 5.4766 6.6863 6.02488 6.20312C6.65161 5.65079 7.46542 5.34695 8.39211 5.00097L16.6308 1.91169L16.6957 1.88723C16.938 1.79568 17.2432 1.68041 17.5711 1.63301ZM19.5001 9C19.5001 8.17158 18.8286 7.5 18.0001 7.5C17.1717 7.5 16.5001 8.17158 16.5001 9V9.75C14.0148 9.75 12.0001 11.7647 12.0001 14.25C12.0001 16.7354 14.0148 18.75 16.5001 18.75H19.5001C20.3286 18.75 21.0001 19.4216 21.0001 20.25C21.0001 21.0785 20.3286 21.75 19.5001 21.75H16.3002C15.8022 21.75 15.367 21.4704 15.1476 21.0527C14.7624 20.3192 13.8556 20.0369 13.1221 20.4221C12.3887 20.8071 12.1064 21.714 12.4915 22.4474C13.2087 23.8131 14.6438 24.75 16.3002 24.75H16.5001V25.5C16.5001 26.3285 17.1717 27 18.0001 27C18.8286 27 19.5001 26.3285 19.5001 25.5V24.75C21.9855 24.75 24.0001 22.7354 24.0001 20.25C24.0001 17.7647 21.9855 15.75 19.5001 15.75H16.5001C15.6717 15.75 15.0001 15.0785 15.0001 14.25C15.0001 13.4216 15.6717 12.75 16.5001 12.75H19.7001C20.1981 12.75 20.6332 13.0296 20.8527 13.4474C21.2379 14.1809 22.1446 14.4632 22.8781 14.078C23.6115 13.6928 23.8939 12.786 23.5087 12.0526C22.7914 10.6869 21.3564 9.75 19.7001 9.75H19.5001V9Z" fill="#101B42"/>
</svg>
