<svg width="138" height="139" viewBox="0 0 138 139" fill="none" xmlns="http://www.w3.org/2000/svg">
<path d="M7.00648 21.5359L13.5934 21.0164L17.6397 39.0598L27.3424 83.7204C27.9179 86.3702 28.4183 88.6736 28.9813 90.5561C29.5794 92.5564 30.3625 94.5005 31.7087 96.2913C33.7355 98.9876 36.4981 101.041 39.6642 102.203C41.7673 102.976 43.8547 103.164 45.9424 103.16C47.9074 103.156 50.2572 102.971 52.9606 102.758L103.131 98.8007C105.702 98.598 107.943 98.4212 109.801 98.1342C111.78 97.829 113.728 97.3453 115.621 96.3271C118.48 94.7891 120.856 92.4864 122.481 89.6754C123.557 87.8146 124.1 85.8823 124.466 83.9143C124.81 82.0662 125.056 79.832 125.338 77.2685L129.887 35.8988C129.977 35.075 130.083 34.1246 130.101 33.2922C130.122 32.3559 130.066 30.9396 129.4 29.4403C128.557 27.5454 127.07 26.0112 125.202 25.111C123.723 24.3989 122.309 24.2986 121.373 24.2908C120.541 24.284 119.587 24.3595 118.761 24.4249L27.9209 31.5893L24.7296 17.3583C24.5968 16.7649 24.4346 16.0404 24.2407 15.4069C24.0124 14.661 23.6274 13.6364 22.8555 12.6196C21.8407 11.2827 20.4627 10.2657 18.886 9.69026C17.6868 9.25259 16.5942 9.18674 15.8141 9.18852C15.1516 9.19007 14.4115 9.24873 13.8054 9.2968L6.0892 9.90535C2.87754 10.1587 0.479269 12.9676 0.732565 16.1793C0.985865 19.391 3.79482 21.7892 7.00648 21.5359Z" fill="#E7E9F1"/>
<path d="M44.3383 123.918C43.8317 117.494 48.6282 111.876 55.0516 111.37C61.4751 110.863 67.0928 115.66 67.5994 122.083C68.106 128.507 63.3097 134.124 56.8861 134.631C50.4627 135.137 44.8449 130.341 44.3383 123.918Z" fill="#E7E9F1"/>
<path d="M90.8605 120.249C90.3539 113.825 95.1502 108.207 101.574 107.701C107.997 107.194 113.615 111.99 114.122 118.414C114.628 124.838 109.832 130.455 103.408 130.962C96.9848 131.468 91.3671 126.672 90.8605 120.249Z" fill="#E7E9F1"/>
</svg>
