<svg width="36" height="36" viewBox="0 0 36 36" fill="none" xmlns="http://www.w3.org/2000/svg">
<path d="M20.1741 19.8447C19.4781 20.0113 18.7503 20.0998 18 20.0998C15.4206 20.0998 13.0848 19.0495 11.3992 17.3515C9.73075 15.6706 8.69995 13.3557 8.69995 10.8001C8.69995 5.66379 12.8637 1.5 18 1.5C23.1361 1.5 27.3 5.66379 27.3 10.8001C27.3 12.6685 26.749 14.4083 25.8007 15.8656C24.5497 17.7882 22.6072 19.2196 20.3259 19.807C20.2755 19.82 20.2249 19.8325 20.1741 19.8447Z" fill="#101B42"/>
<path d="M22.7213 22.1614C24.9968 21.2146 26.9268 19.6042 28.2696 17.5719C28.5005 17.2225 28.6158 17.0478 28.7642 16.9599C28.8921 16.8841 29.0487 16.8468 29.1971 16.8568C29.3691 16.8685 29.5158 16.9522 29.8091 17.1199C32.6118 18.7225 34.4999 21.7419 34.4999 25.1998C34.4999 30.3361 30.3362 34.5 25.1999 34.5C23.8683 34.5 22.6032 34.2208 21.4587 33.7173C21.0822 33.5517 20.894 33.4689 20.7752 33.3073C20.6732 33.1689 20.6201 32.9883 20.6307 32.8165C20.6432 32.6166 20.7846 32.4027 21.0674 31.975C22.2558 30.1776 22.985 28.0495 23.0874 25.7584C23.0952 25.5849 23.0993 25.4103 23.0999 25.2349V25.1998C23.0999 24.2832 22.9994 23.3889 22.8084 22.5277C22.7813 22.4049 22.7522 22.2828 22.7213 22.1614Z" fill="#101B42"/>
<path d="M6.19085 17.1199C6.48409 16.9522 6.63073 16.8685 6.80274 16.8568C6.95121 16.8468 7.10772 16.8841 7.23573 16.9599C7.38403 17.0478 7.49946 17.2225 7.73032 17.5719C9.93111 20.9028 13.7089 23.1001 18 23.1001C18.6219 23.1001 19.233 23.0541 19.8301 22.965L19.8394 23.0035C20.0097 23.7067 20.1 24.442 20.1 25.1998V25.2321C20.0995 25.3584 20.0965 25.4842 20.0911 25.6092C19.8769 30.5556 15.799 34.5 10.8 34.5C5.66376 34.5 1.5 30.3361 1.5 25.1998C1.5 21.7419 3.38804 18.7225 6.19085 17.1199Z" fill="#101B42"/>
</svg>
