<svg width="46" height="46" viewBox="0 0 46 46" fill="none" xmlns="http://www.w3.org/2000/svg">
<rect width="46" height="46" rx="23" fill="#0038FF"/>
<g clip-path="url(#clip0_39_1040)">
<path d="M26.61 23C26.61 24.99 24.99 26.61 23 26.61C21.01 26.61 19.39 24.99 19.39 23C19.39 21.01 21.01 19.39 23 19.39C24.99 19.39 26.61 21.01 26.61 23ZM23 11C16.383 11 11 16.383 11 23C11 29.617 16.383 35 23 35C25.424 35 27.761 34.278 29.76 32.913L29.794 32.889L28.177 31.01L28.15 31.027C26.6146 32.0162 24.8265 32.5415 23 32.54C17.74 32.54 13.46 28.26 13.46 23C13.46 17.74 17.74 13.46 23 13.46C28.26 13.46 32.54 17.74 32.54 23C32.5386 23.6894 32.4632 24.3767 32.315 25.05C32.014 26.289 31.146 26.668 30.495 26.618C29.841 26.565 29.075 26.098 29.069 24.957V23C29.0674 21.3908 28.4275 19.8479 27.2897 18.71C26.152 17.572 24.6092 16.9319 23 16.93C21.3906 16.9316 19.8476 17.5716 18.7096 18.7096C17.5716 19.8476 16.9316 21.3906 16.93 23C16.9316 24.6094 17.5716 26.1524 18.7096 27.2904C19.8476 28.4284 21.3906 29.0684 23 29.07C23.7998 29.0719 24.5921 28.9145 25.3304 28.6068C26.0687 28.2991 26.7382 27.8474 27.3 27.278C27.6551 27.8356 28.146 28.2937 28.7268 28.6095C29.3075 28.9252 29.959 29.0882 30.62 29.083C31.494 29.083 32.36 28.791 33.057 28.262C33.776 27.715 34.313 26.926 34.61 25.977C34.657 25.823 34.745 25.473 34.745 25.47L34.747 25.457C34.922 24.697 35 23.937 35 23C35 16.383 29.617 11 23 11Z" fill="white"/>
</g>
<defs>
<clipPath id="clip0_39_1040">
<rect width="24" height="24" fill="white" transform="translate(11 11)"/>
</clipPath>
</defs>
</svg>
