<svg width="31" height="21" viewBox="0 0 31 21" fill="none" xmlns="http://www.w3.org/2000/svg">
<g clip-path="url(#clip0_355_417)">
<path d="M3.71045 20.2275H12.8741V14.1501L3.71045 20.2275Z" fill="#283485"/>
<path d="M0.328613 2.4375V6.85739H6.98316L0.328613 2.4375Z" fill="#283485"/>
<path d="M30.3286 6.85732V2.49268L23.7286 6.85732H30.3286Z" fill="#283485"/>
<path d="M30.3286 17.9624V13.5425H23.6741L30.3286 17.9624Z" fill="#283485"/>
<path d="M0.328613 13.5425V17.9624L7.0377 13.5425H0.328613Z" fill="#283485"/>
<path d="M17.7832 20.2276H27.0014L17.7832 14.095V20.2276Z" fill="#283485"/>
<path d="M26.9468 0.227539H17.7832V6.30489L26.9468 0.227539Z" fill="#283485"/>
<path d="M12.8741 0.227539H3.76501L12.8741 6.30489V0.227539Z" fill="#283485"/>
<path d="M10.0922 8.23859H12.3286H12.8741H13.8559V6.96787V6.85737V0.227539H12.8741V6.30489L3.76498 0.227539H0.328613L10.3104 6.85737H8.01952L0.328613 1.71925V2.43748L6.98316 6.85737H0.328613V8.23859H9.00134H10.0922Z" fill="white"/>
<path d="M20.4559 12.1611H18.2196H17.7832H16.8014V13.4319V13.5423V20.2274H17.7832V14.0948L27.0014 20.2274H30.3287L20.2378 13.5423H22.5287L30.3287 18.7357V17.9622L23.6741 13.5423H30.3287V12.1611H21.6559H20.4559Z" fill="white"/>
<path d="M13.8559 13.4871V12.6584V12.1611H12.8741H12.4377H9.05589H0.328613V13.5423H7.0377L0.328613 17.9622V20.2274L10.4195 13.5423H12.5468L2.51043 20.2274H3.71043L12.8741 14.1501V20.2274H13.8559V13.5423V13.4871Z" fill="white"/>
<path d="M18.0559 6.85737L27.9832 0.227539H26.9468L17.7832 6.30489V0.227539H16.8014V6.85737V6.96787V7.6861V8.23859H17.7832H18.3287H21.7105H30.3287V6.85737H23.7287L30.3287 2.49273V0.227539L20.3468 6.85737H18.0559Z" fill="white"/>
<path d="M10.3104 6.85737L0.328613 0.227539V1.71925L8.01952 6.85737H10.3104Z" fill="#CA1517"/>
<path d="M20.2377 13.5425L30.3286 20.2276V18.7359L22.5286 13.5425H20.2377Z" fill="#CA1517"/>
<path d="M18.0559 6.85737H20.3468L30.3286 0.227539H27.9832L18.0559 6.85737Z" fill="#CA1517"/>
<path d="M10.4195 13.5425L0.328613 20.2276H2.51043L12.5468 13.5425H10.4195Z" fill="#CA1517"/>
<path d="M18.3286 8.23859H17.7832H16.8013V7.6861V6.96787V6.85737V0.227539H13.8559V6.85737V6.96787V8.23859H12.8741H12.3286H10.0922H9.00134H0.328613V12.1612H9.05589H12.4377H12.8741H13.8559V12.6585V13.4872V13.5425V20.2275H16.8013V13.5425V13.432V12.1612H17.7832H18.2195H20.4559H21.6559H30.3286V8.23859H21.7104H18.3286Z" fill="#CA1517"/>
</g>
<defs>
<clipPath id="clip0_355_417">
<rect width="30" height="20" fill="white" transform="translate(0.328613 0.227539)"/>
</clipPath>
</defs>
</svg>
