<svg width="138" height="122" viewBox="0 0 138 122" fill="none" xmlns="http://www.w3.org/2000/svg">
<path fill-rule="evenodd" clip-rule="evenodd" d="M55.3232 5.47953C37.2761 9.96576 21.2554 15.5393 11.3027 26.1466C0.88221 37.2526 -2.01246 52.7811 3.43011 74.6754C6.49518 87.0055 11.1965 99.4048 17.771 108.264C24.3835 117.174 33.7329 123.439 45.5298 120.506C50.9542 119.158 54.7082 116.752 57.515 113.665C59.8831 111.06 61.4659 108.045 62.7431 105.613C62.8844 105.344 63.0219 105.082 63.1564 104.829C64.5982 102.111 65.8654 99.9517 67.8082 98.1125C69.6807 96.3394 72.4542 94.6213 77.1868 93.4448C81.9188 92.2685 85.1739 92.488 87.6587 93.178C90.2368 93.8933 92.3676 95.208 94.9136 96.9344C95.1513 97.0954 95.3957 97.2624 95.6463 97.4342C97.9138 98.9848 100.724 100.907 104.036 102.1C107.962 103.514 112.405 103.882 117.83 102.533C129.627 99.6009 134.954 89.6882 136.625 78.7187C138.286 67.8122 136.634 54.655 133.569 42.3249C128.039 20.0779 118.222 7.66686 103.791 2.82876C90.0467 -1.779 73.3132 1.00751 55.3232 5.47953ZM38.7086 41.596C41.3706 40.9343 44.065 42.5558 44.7267 45.2179L46.524 52.4478L53.754 50.6506C56.4161 49.9888 59.1107 51.6105 59.7724 54.2723C60.4341 56.9341 58.8124 59.6287 56.1503 60.2905L48.9203 62.0878L50.7176 69.3177C51.3793 71.9796 49.7578 74.6741 47.0958 75.3359C44.4338 75.9976 41.7393 74.3759 41.0776 71.7141L39.2804 64.4841L32.0504 66.2814C29.3884 66.9431 26.694 65.3214 26.0323 62.6596C25.3706 59.9977 26.9921 57.3031 29.6541 56.6414L36.884 54.8442L35.0868 47.6142C34.4251 44.9522 36.0466 42.2578 38.7086 41.596ZM85.0773 47.9819C88.4043 47.1549 90.4317 43.7868 89.6045 40.4592C88.7774 37.1317 85.4088 35.1049 82.0819 35.932C78.7543 36.7591 76.7274 40.1271 77.5546 43.4546C78.3818 46.7822 81.7497 48.8091 85.0773 47.9819ZM104.65 49.5137C105.477 52.8413 103.45 56.2094 100.123 57.0364C96.7951 57.8636 93.4272 55.8367 92.6 52.5092C91.7728 49.1816 93.7996 45.8137 97.1272 44.9865C100.454 44.1594 103.823 46.1861 104.65 49.5137Z" fill="#E7E9F1"/>
</svg>
