<svg width="36" height="36" viewBox="0 0 36 36" fill="none" xmlns="http://www.w3.org/2000/svg">
<path fill-rule="evenodd" clip-rule="evenodd" d="M22.4997 3C16.7009 3 11.9998 7.70101 11.9998 13.5C11.9998 13.9775 12.0318 14.4484 12.0939 14.9104C12.1393 15.2479 12.1674 15.4592 12.1823 15.6131C12.1849 15.6405 12.1868 15.663 12.1881 15.6811L12.1748 15.696C12.1017 15.7762 11.9967 15.8817 11.8078 16.0707L4.14209 23.7365L4.08785 23.7905C3.88587 23.9913 3.63156 24.2444 3.44189 24.5538C3.2774 24.8223 3.15618 25.115 3.0827 25.4209C2.99795 25.774 2.99891 26.1327 2.99966 26.4175L2.99981 26.4941L2.99979 29.1479C2.99975 29.5264 2.9997 29.8952 3.02522 30.2073C3.05324 30.5502 3.11934 30.9549 3.32678 31.362C3.6144 31.9265 4.07334 32.3854 4.63784 32.673C5.04497 32.8804 5.44956 32.9466 5.79246 32.9747C6.10464 33.0002 6.47325 33 6.85175 33H10.4998C11.3282 33 11.9998 32.3284 11.9998 31.5V30H13.4998C14.3282 30 14.9998 29.3284 14.9998 28.5V27H16.4997C16.8977 27 17.2791 26.8419 17.5605 26.5606L19.9292 24.192C20.118 24.0032 20.2236 23.8981 20.3037 23.8249L20.3186 23.8118C20.3367 23.813 20.3592 23.8149 20.3867 23.8176C20.5407 23.8324 20.7519 23.8605 21.0894 23.9059C21.5514 23.9681 22.0223 24 22.4997 24C28.2987 24 32.9997 19.299 32.9997 13.5C32.9997 7.70101 28.2987 3 22.4997 3ZM22.5 11.9997C22.8863 11.9997 23.2674 12.1459 23.5607 12.4391C23.8539 12.7322 24 13.1135 24 13.4997C24 14.3281 24.6716 14.9997 25.5 14.9996C26.3285 14.9996 27 14.328 27 13.4996C27 12.3503 26.5604 11.1961 25.682 10.3177C24.8036 9.43935 23.6493 8.99972 22.5 8.99972C21.6716 8.99972 21 9.6713 21 10.4997C21 11.3282 21.6716 11.9997 22.5 11.9997Z" fill="#101B42"/>
</svg>
