<svg width="148" height="35" viewBox="0 0 148 35" fill="none" xmlns="http://www.w3.org/2000/svg">
<g clip-path="url(#clip0_39_1098)">
<path d="M59.6344 21.7569H53.7014V28.0475H50.4504V8.81849H59.6344C60.5375 8.81849 61.3592 8.98331 62.0997 9.31295C62.8583 9.64259 63.5175 10.1004 64.0774 10.6864C64.6373 11.2725 65.0708 11.9592 65.3778 12.7467C65.6848 13.5159 65.8384 14.3583 65.8384 15.2739C65.8384 16.2079 65.6848 17.0687 65.3778 17.8561C65.0708 18.6436 64.6373 19.3304 64.0774 19.9164C63.5175 20.4841 62.8583 20.9328 62.0997 21.2624C61.3592 21.5921 60.5375 21.7569 59.6344 21.7569ZM53.7014 18.4605H58.9842C60.1401 18.4605 61.0251 18.1766 61.6392 17.6089C62.2713 17.0229 62.5874 16.2446 62.5874 15.2739C62.5874 14.3033 62.2713 13.5342 61.6392 12.9665C61.0251 12.3987 60.1401 12.1149 58.9842 12.1149H53.7014V18.4605Z" fill="white"/>
<path d="M74.2284 12.9665C75.0773 12.9665 75.9262 13.058 76.775 13.2412C77.6239 13.4243 78.3825 13.7539 79.0507 14.2301C79.737 14.7062 80.2879 15.3472 80.7033 16.153C81.1187 16.9588 81.3264 17.9843 81.3264 19.2296V28.0475H78.0754V25.3005H77.9941C77.8316 25.6485 77.5968 26.0056 77.2898 26.3718C76.9827 26.7198 76.6035 27.0494 76.1519 27.3608C75.7185 27.6538 75.2128 27.8919 74.6348 28.075C74.0569 28.2764 73.4247 28.3772 72.7384 28.3772C72.034 28.3772 71.3477 28.2673 70.6795 28.0475C70.0293 27.8094 69.4423 27.4798 68.9185 27.0586C68.3948 26.6191 67.9703 26.0971 67.6452 25.4928C67.3382 24.8885 67.1847 24.2017 67.1847 23.4325C67.1847 22.5169 67.3563 21.7477 67.6994 21.1251C68.0426 20.4841 68.4941 19.953 69.054 19.5318C69.6319 19.1106 70.2821 18.7901 71.0046 18.5704C71.7451 18.3506 72.5036 18.1858 73.2802 18.0759C74.0749 17.966 74.8606 17.9019 75.6372 17.8836C76.4138 17.8653 77.1272 17.8561 77.7774 17.8561C77.7774 17.5631 77.6871 17.2976 77.5065 17.0595C77.344 16.8031 77.1092 16.5834 76.8021 16.4002C76.5131 16.2171 76.17 16.0797 75.7726 15.9882C75.3934 15.8783 74.996 15.8233 74.5806 15.8233C72.7926 15.8233 71.4651 16.3819 70.5982 17.499L68.0516 15.9882C68.6837 15.0176 69.5326 14.2759 70.5982 13.7631C71.6818 13.232 72.8919 12.9665 74.2284 12.9665ZM70.4356 23.2952C70.4356 23.9362 70.6704 24.4673 71.14 24.8885C71.6277 25.2914 72.1876 25.4928 72.8197 25.4928C73.3976 25.4928 73.9666 25.3738 74.5264 25.1357C75.0863 24.8976 75.583 24.5771 76.0165 24.1742C76.468 23.753 76.8292 23.2769 77.1001 22.7458C77.3891 22.2147 77.5336 21.6653 77.5336 21.0976V20.5207H76.6667C76.1971 20.5207 75.6101 20.539 74.9057 20.5757C74.2013 20.6123 73.515 20.7222 72.8468 20.9053C72.1785 21.0701 71.6096 21.3448 71.14 21.7294C70.6704 22.0957 70.4356 22.6176 70.4356 23.2952Z" fill="white"/>
<path d="M97.283 13.4884V13.5708L91.9731 27.9651C91.5758 29.0456 91.1333 30.007 90.6456 30.8495C90.158 31.7102 89.571 32.4427 88.8847 33.0471C88.2164 33.6514 87.4217 34.1092 86.5006 34.4206C85.5976 34.7502 84.523 34.915 83.2768 34.915H81.868V31.6186H83.2768C83.8366 31.6186 84.3423 31.582 84.7939 31.5087C85.2635 31.4355 85.6879 31.2981 86.0672 31.0967C86.4645 30.8952 86.8257 30.6205 87.1508 30.2726C87.4759 29.9246 87.783 29.476 88.0719 28.9266L81.9764 13.5708V13.4884H85.5524L89.8058 24.5314L93.734 13.4884H97.283Z" fill="white"/>
<path d="M116 22.7733C116 23.5058 115.856 24.1926 115.567 24.8335C115.296 25.4745 114.916 26.033 114.429 26.5092C113.941 26.9853 113.372 27.3608 112.722 27.6355C112.072 27.9102 111.376 28.0475 110.636 28.0475H99.4742V8.79102H109.932C110.672 8.79102 111.367 8.92837 112.018 9.20307C112.686 9.45945 113.264 9.82572 113.751 10.3019C114.239 10.7597 114.618 11.3183 114.889 11.9775C115.178 12.6185 115.323 13.3144 115.323 14.0653C115.323 14.4132 115.259 14.7886 115.133 15.1915C115.025 15.5944 114.844 15.9882 114.591 16.3727C114.356 16.7573 114.049 17.1053 113.67 17.4166C113.291 17.7096 112.848 17.9202 112.343 18.0484V18.1308C113.535 18.4605 114.438 19.0099 115.052 19.779C115.684 20.5482 116 21.5463 116 22.7733ZM109.39 16.6749C110.13 16.6749 110.762 16.4918 111.286 16.1255C111.81 15.7409 112.072 15.1732 112.072 14.4224C112.072 13.6532 111.81 13.0763 111.286 12.6918C110.762 12.2889 110.13 12.0874 109.39 12.0874H102.725V16.6749H109.39ZM110.04 24.7511C110.817 24.7511 111.458 24.5497 111.963 24.1468C112.487 23.7256 112.749 23.1304 112.749 22.3612C112.749 21.5921 112.487 21.006 111.963 20.6031C111.458 20.1819 110.817 19.9713 110.04 19.9713H102.725V24.7511H110.04Z" fill="white"/>
<path d="M124.945 12.9665C125.794 12.9665 126.643 13.058 127.492 13.2412C128.341 13.4243 129.099 13.7539 129.768 14.2301C130.454 14.7062 131.005 15.3472 131.42 16.153C131.836 16.9588 132.043 17.9843 132.043 19.2296V28.0475H128.792V25.3005H128.711C128.549 25.6485 128.314 26.0056 128.007 26.3718C127.7 26.7198 127.32 27.0494 126.869 27.3608C126.435 27.6538 125.93 27.8919 125.352 28.075C124.774 28.2764 124.142 28.3772 123.455 28.3772C122.751 28.3772 122.065 28.2673 121.396 28.0475C120.746 27.8094 120.159 27.4798 119.636 27.0586C119.112 26.6191 118.687 26.0971 118.362 25.4928C118.055 24.8885 117.902 24.2017 117.902 23.4325C117.902 22.5169 118.073 21.7477 118.416 21.1251C118.76 20.4841 119.211 19.953 119.771 19.5318C120.349 19.1106 120.999 18.7901 121.722 18.5704C122.462 18.3506 123.221 18.1858 123.997 18.0759C124.792 17.966 125.578 17.9019 126.354 17.8836C127.131 17.8653 127.844 17.8561 128.494 17.8561C128.494 17.5631 128.404 17.2976 128.224 17.0595C128.061 16.8031 127.826 16.5834 127.519 16.4002C127.23 16.2171 126.887 16.0797 126.49 15.9882C126.11 15.8783 125.713 15.8233 125.298 15.8233C123.51 15.8233 122.182 16.3819 121.315 17.499L118.769 15.9882C119.401 15.0176 120.25 14.2759 121.315 13.7631C122.399 13.232 123.609 12.9665 124.945 12.9665ZM121.153 23.2952C121.153 23.9362 121.387 24.4673 121.857 24.8885C122.345 25.2914 122.905 25.4928 123.537 25.4928C124.115 25.4928 124.684 25.3738 125.243 25.1357C125.803 24.8976 126.3 24.5771 126.733 24.1742C127.185 23.753 127.546 23.2769 127.817 22.7458C128.106 22.2147 128.251 21.6653 128.251 21.0976V20.5207H127.384C126.914 20.5207 126.327 20.539 125.623 20.5757C124.918 20.6123 124.232 20.7222 123.564 20.9053C122.896 21.0701 122.327 21.3448 121.857 21.7294C121.387 22.0957 121.153 22.6176 121.153 23.2952Z" fill="white"/>
<path d="M148 13.4884V13.5708L142.69 27.9651C142.293 29.0456 141.85 30.007 141.363 30.8495C140.875 31.7102 140.288 32.4427 139.602 33.0471C138.933 33.6514 138.139 34.1092 137.218 34.4206C136.315 34.7502 135.24 34.915 133.994 34.915H132.585V31.6186H133.994C134.554 31.6186 135.059 31.582 135.511 31.5087C135.98 31.4355 136.405 31.2981 136.784 31.0967C137.182 30.8952 137.543 30.6205 137.868 30.2726C138.193 29.9246 138.5 29.476 138.789 28.9266L132.693 13.5708V13.4884H136.269L140.523 24.5314L144.451 13.4884H148Z" fill="white"/>
<path fill-rule="evenodd" clip-rule="evenodd" d="M32.8194 19.6745C31.2435 22.1645 28.2787 23.9324 24.7758 23.9324C19.4135 23.9324 15.4844 19.8906 15.4844 15.409C15.4844 10.9273 19.4135 6.88555 24.7758 6.88555C28.2315 6.88555 31.1647 8.60651 32.756 11.0448L38.2639 7.34906C35.423 2.99593 30.3992 0.188575 24.7758 0.188575C16.2275 0.188575 8.87977 6.77728 8.87977 15.409C8.87977 24.0407 16.2275 30.6294 24.7758 30.6294C30.4744 30.6294 35.5587 27.746 38.3779 23.2915L32.8194 19.6745Z" fill="url(#paint0_linear_39_1098)"/>
<path fill-rule="evenodd" clip-rule="evenodd" d="M7.29751 13.968C6.20949 16.7132 6.50667 20.1877 8.53663 23.0824C11.6442 27.5135 17.1696 28.4181 20.7716 25.8209C24.3737 23.2237 25.3453 17.6347 22.2377 13.2035C20.2351 10.3479 17.1521 8.92133 14.2702 9.01939L14.0487 2.32618C19.1938 2.15111 24.3615 4.67567 27.6203 9.32255C32.5741 16.3865 31.5367 26.2765 24.5991 31.2787C17.6615 36.2809 8.10788 34.0272 3.15405 26.9633C-0.148341 22.2543 -0.777271 16.3819 1.16919 11.4708L7.29751 13.968Z" fill="url(#paint1_linear_39_1098)"/>
</g>
<defs>
<linearGradient id="paint0_linear_39_1098" x1="-2.86023" y1="7.2643" x2="2.81837" y2="28.7563" gradientUnits="userSpaceOnUse">
<stop stop-color="white"/>
<stop offset="1" stop-color="white" stop-opacity="0"/>
</linearGradient>
<linearGradient id="paint1_linear_39_1098" x1="2.84851" y1="48.5626" x2="-10.6004" y2="29.9698" gradientUnits="userSpaceOnUse">
<stop stop-color="white"/>
<stop offset="1" stop-color="white" stop-opacity="0"/>
</linearGradient>
<clipPath id="clip0_39_1098">
<rect width="148" height="35" fill="white"/>
</clipPath>
</defs>
</svg>
