<svg width="36" height="36" viewBox="0 0 36 36" fill="none" xmlns="http://www.w3.org/2000/svg">
<path fill-rule="evenodd" clip-rule="evenodd" d="M17.5711 1.63264C17.8557 1.59153 18.1447 1.59153 18.4293 1.63264C18.7572 1.68003 19.0623 1.79532 19.3047 1.88685L19.3695 1.91133L27.6082 5.00061C28.5349 5.34658 29.3487 5.65041 29.9754 6.20275C30.5236 6.68593 30.946 7.29537 31.206 7.97839C31.503 8.75916 31.5018 9.62782 31.5004 10.617L31.5001 17.9998C31.5001 22.2397 29.1942 25.7746 26.7016 28.3714C24.1923 30.9856 21.3211 32.832 19.803 33.7177L19.7415 33.7537C19.4644 33.9165 19.1049 34.1275 18.6292 34.2297C18.24 34.3131 17.7603 34.3131 17.3712 34.2297C16.8954 34.1277 16.5358 33.9165 16.2588 33.7537L16.1973 33.7177C14.6791 32.832 11.8081 30.9856 9.29874 28.3714C6.80608 25.7746 4.50015 22.2397 4.50015 17.9998L4.49995 10.617C4.49851 9.62784 4.49725 8.75916 4.79436 7.97839C5.05426 7.29537 5.4766 6.68593 6.02488 6.20275C6.65161 5.65042 7.46542 5.34658 8.39211 5.00061L16.6308 1.91133L16.6957 1.88685C16.938 1.79532 17.2432 1.68003 17.5711 1.63264ZM24.3108 14.5607C24.8965 13.9749 24.8965 13.0251 24.3108 12.4393C23.725 11.8536 22.7752 11.8536 22.1895 12.4393L16.5001 18.1287L14.5608 16.1893C13.975 15.6036 13.0252 15.6036 12.4395 16.1893C11.8537 16.7751 11.8537 17.7249 12.4395 18.3106L15.4395 21.3106C16.0252 21.8964 16.975 21.8964 17.5608 21.3106L24.3108 14.5607Z" fill="#101B42"/>
</svg>
