<svg width="46" height="46" viewBox="0 0 46 46" fill="none" xmlns="http://www.w3.org/2000/svg">
<rect width="46" height="46" rx="23" fill="#0038FF"/>
<g clip-path="url(#clip0_39_1031)">
<path d="M22.944 11C19.7711 11.0148 16.7332 12.2857 14.4949 14.5345C12.2566 16.7833 11 19.8271 11 23C11 26.1826 12.2643 29.2349 14.5147 31.4853C16.7652 33.7358 19.8174 35 23 35C26.1826 35 29.2348 33.7358 31.4853 31.4853C33.7357 29.2349 35 26.1826 35 23C35 19.8174 33.7357 16.7652 31.4853 14.5148C29.2348 12.2643 26.1826 11 23 11C22.9813 11 22.9627 11 22.944 11ZM27.906 18.224C28.006 18.222 28.227 18.247 28.371 18.364C28.4667 18.4471 28.5277 18.5631 28.542 18.689C28.558 18.782 28.578 18.995 28.562 19.161C28.382 21.059 27.6 25.663 27.202 27.788C27.034 28.688 26.703 28.989 26.382 29.018C25.686 29.083 25.157 28.558 24.482 28.116C23.426 27.423 22.829 26.992 21.804 26.316C20.619 25.536 21.387 25.106 22.062 24.406C22.239 24.222 25.309 21.429 25.369 21.176C25.376 21.144 25.383 21.026 25.313 20.964C25.243 20.902 25.139 20.923 25.064 20.94C24.958 20.964 23.271 22.08 20.003 24.285C19.523 24.615 19.09 24.775 18.701 24.765C18.273 24.757 17.449 24.524 16.836 24.325C16.084 24.08 15.487 23.951 15.539 23.536C15.566 23.32 15.864 23.099 16.432 22.873C19.93 21.349 22.262 20.344 23.43 19.859C26.762 18.473 27.455 18.232 27.906 18.224Z" fill="white"/>
</g>
<defs>
<clipPath id="clip0_39_1031">
<rect width="24" height="24" fill="white" transform="translate(11 11)"/>
</clipPath>
</defs>
</svg>
