<svg width="150" height="136" viewBox="0 0 150 136" fill="none" xmlns="http://www.w3.org/2000/svg">
<path d="M110.947 15.3308L109.075 16.9276L109.215 15.1915L100.679 14.5051C96.3525 20.1426 87.8972 23.5999 78.4643 22.8414C69.0349 22.0832 61.2406 17.3191 57.8704 11.0627L49.3349 10.3764L49.1953 12.1125L47.5988 10.2368L14.4315 38.483L29.8716 56.6385L46.7721 42.2474L40.4796 120.499L100.352 125.314L106.645 47.0653L121.032 63.9725L139.171 48.5137L110.947 15.3308Z" fill="#E7E9F1"/>
<path d="M99.7974 132.217L39.9246 127.402C38.0938 127.255 36.3965 126.387 35.2061 124.988C34.0156 123.589 33.4295 121.775 33.5767 119.944L38.5287 58.3629L34.3596 61.9114C32.9595 63.1008 31.1446 63.6862 29.3133 63.5389C27.4821 63.3916 25.784 62.5238 24.5919 61.1259L9.15184 42.9704C7.96271 41.5715 7.37745 39.7578 7.52462 37.9276C7.67179 36.0975 8.53934 34.4006 9.93673 33.2096L43.111 4.96393C43.9176 4.28339 44.868 3.79441 45.8907 3.53371C46.9134 3.27302 47.9818 3.24737 49.0159 3.4587C49.3051 3.44722 49.5967 3.44983 49.8901 3.47342L58.4256 4.15978C59.5778 4.25233 60.6885 4.6318 61.6564 5.26361C62.6244 5.89542 63.4188 6.75947 63.9672 7.77698C66.3461 12.1924 72.2546 15.3945 79.0195 15.9384C85.7844 16.4824 92.1321 14.2659 95.1859 10.2874C95.8899 9.37056 96.8121 8.64455 97.8686 8.17553C98.9251 7.70651 100.082 7.50939 101.234 7.60215L109.77 8.28851C110.063 8.3121 110.352 8.35267 110.635 8.41368C110.921 8.40192 111.209 8.40425 111.499 8.42756C113.328 8.57466 115.03 9.44447 116.224 10.8431L144.452 44.0229C146.927 46.935 146.576 51.3011 143.667 53.7837L125.527 69.2424C124.129 70.433 122.315 71.0193 120.484 70.8725C119.578 70.8008 118.691 70.5506 117.881 70.1368C117.071 69.723 116.352 69.1534 115.763 68.4607L112.211 64.2844L107.259 125.869C107.186 126.776 106.935 127.66 106.521 128.469C106.106 129.279 105.536 129.999 104.843 130.589C104.15 131.178 103.348 131.626 102.482 131.905C101.617 132.184 100.704 132.29 99.7974 132.217ZM47.9378 114.151L94.0047 117.856L99.7418 46.5102C99.8518 45.1452 100.364 43.8434 101.214 42.7695C102.064 41.6956 103.213 40.8977 104.516 40.4768C105.819 40.0559 107.218 40.0308 108.535 40.4047C109.853 40.7786 111.03 41.5347 111.918 42.5774L121.814 54.2045L129.414 47.7291L109.105 23.8533C108.167 23.8586 107.238 23.6728 106.373 23.307C105.509 22.9413 104.729 22.4034 104.08 21.7261L103.486 21.6784C97.2823 27.5019 87.8461 30.5434 77.9093 29.7444C67.9725 28.9453 59.1469 24.4353 53.9502 17.6951L53.3566 17.6474C52.6066 18.212 51.7496 18.6182 50.8376 18.8411C49.9257 19.064 48.9779 19.0989 48.052 18.9438L24.1852 39.2708L30.6531 46.8775L42.277 36.9774C43.3199 36.0887 44.603 35.5294 45.9639 35.3702C47.3248 35.211 48.7024 35.4591 49.9222 36.083C51.1421 36.707 52.1495 37.6788 52.8168 38.8755C53.4842 40.0721 53.7816 41.4399 53.6714 42.8056L47.9343 114.151L47.9378 114.151Z" fill="#E7E9F1"/>
</svg>
